# AST/ASF file generated using VICON BodyLanguage
# -----------------------------------------------
:version 1.10
:name VICON
:units
  mass 1.0
  length 0.45
  angle deg
:documentation
   .ast/.asf automatically generated from VICON data using
   VICON BodyBuilder and BodyLanguage model FoxedUp or BRILLIANT.MOD
:root
   order TX TY TZ RX RY RZ
   axis XYZ
   position 0 0 0  
   orientation 0 0 0 
:bonedata
  begin
     id 1 
     name lhipjoint
     direction 0.54267 -0.795011 0.271047 
     length 2.39899 
     axis 0 0 0  XYZ
  end
  begin
     id 2 
     name lfemur
     direction 0.34202 -0.939693 0  
     length 7.49701  
     axis 0 0 20  XYZ
    dof rx ry rz
    limits (-160.0 20.0)
           (-70.0 70.0)
           (-60.0 70.0)
  end
  begin
     id 3 
     name ltibia
     direction 0.34202 -0.939693 0   
     length 8.1668   
     axis 0 0 20   XYZ
    dof rx
    limits (-10.0 170.0)
  end
  begin
     id 4 
     name lfoot
     direction 0.0736283 -0.202292 0.976554   
     length 2.13544   
     axis -90 7.62852e-016 20   XYZ
    dof rx rz
    limits (-45.0 90.0)
           (-70.0 20.0)
  end
  begin
     id 5 
     name ltoes
     direction 1.53557e-011 -4.22024e-011 1   
     length 1.07411   
     axis -90 7.62852e-016 20   XYZ
    dof rx
    limits (-90.0 20.0)
  end
  begin
     id 6 
     name rhipjoint
     direction -0.538061 -0.797813 0.272002   
     length 2.39057  
     axis 0 0 0  XYZ 
  end
  begin
     id 7 
     name rfemur
     direction -0.34202 -0.939693 0   
     length 7.50152   
     axis 0 0 -20   XYZ
    dof rx ry rz
    limits (-160.0 20.0)
           (-70.0 70.0)
           (-70.0 60.0)
  end
  begin
     id 8 
     name rtibia
     direction -0.34202 -0.939693 0   
     length 8.05793   
     axis 0 0 -20   XYZ
    dof rx
    limits (-10.0 170.0)
 end
 begin
     id 9 
     name rfoot
     direction -0.0765195 -0.210236 0.974652   
     length 2.28698  
     axis -90 -7.62852e-016 -20   XYZ
    dof rx rz
    limits (-45.0 90.0)
           (-20.0 70.0)
  end
  begin
     id 10 
     name rtoes
     direction -1.53542e-011 -4.21847e-011 1   
     length 1.14762   
     axis -90 -7.62852e-016 -20   XYZ
    dof rx
    limits (-90.0 20.0)
  end
  begin
     id 11 
     name lowerback
     direction -0.0217239 0.996592 -0.0795765   
     length 2.08176   
     axis 0 0 0   XYZ
    dof rx ry rz
    limits (-20.0 45.0)
           (-30.0 30.0)
           (-30.0 30.0)
  end
  begin
     id 12 
     name upperback
     direction -0.00563773 0.999651 -0.0258155   
     length 2.08898   
     axis 0 0 0   XYZ
    dof rx ry rz
    limits (-20.0 45.0)
           (-30.0 30.0)
           (-30.0 30.0)
  end
  begin
     id 13 
     name thorax
     direction 0.0032706 0.999923 0.0119599   
     length 2.0968   
     axis 0 0 0   XYZ
    dof rx ry rz
    limits (-20.0 45.0)
           (-30.0 30.0)
           (-30.0 30.0)
  end
  begin
     id 14 
     name lowerneck
     direction -0.0285886 0.99568 0.0883427   
     length 1.81272   
     axis 0 0 0   XYZ
    dof rx ry rz
    limits (-20.0 45.0)
           (-30.0 30.0)
           (-30.0 30.0)
  end
  begin
     id 15 
     name upperneck
     direction 0.0807535 0.97985 -0.18268   
     length 1.82518   
     axis 0 0 0   XYZ
    dof rx ry rz
    limits (-20.0 45.0)
           (-30.0 30.0)
           (-30.0 30.0)
  end
  begin
     id 16
     name head
     direction 0.0236605 0.997053 -0.0729767  
     length 1.84443  
     axis 0 0 0   XYZ
    dof rx ry rz
    limits (-20.0 45.0)
           (-30.0 30.0)
           (-30.0 30.0)
  end
  begin
     id 17 
     name lclavicle
     direction 0.918986 0.39378 -0.0200683  
     length 3.27822  
     axis 0 0 0   XYZ
    dof ry rz
    limits (-20.0 10.0)
           (0.0 20.0)
  end
  begin
     id 18 
     name lhumerus
     direction 1 -4.4897e-011 2.09544e-027   
     length 5.5568   
     axis 180 -30 -90   XYZ
    dof rx ry rz
    limits (-60.0 90.0)
           (-90.0 90.0)
           (-90.0 90.0)
  end
  begin
     id 19
     name lradius
     direction 1 -4.48957e-011 -1.27696e-026   
     length 3.63979   
     axis 180 -30 -90   XYZ
    dof rx
    limits (-10.0 170.0)
  end
  begin
     id 20
     name lwrist
     direction 1 -4.49001e-011 -1.49001e-026   
     length 1.8199   
     axis 9.0955e-015 90 90   XYZ
    dof ry
    limits (-180.0 0.0)
 end
  begin
     id 21 
     name lhand
     direction 1 -4.48709e-011 -2.9758e-026   
     length 0.569419   
     axis 1.90115e-014 90 90   XYZ
    dof rx rz
    limits (-90.0 90.0)
           (-45.0 45.0)
  end
  begin
     id 22 
     name lfingers
     direction 1 -4.49175e-011 -5.96505e-026   
     length 0.45908   
     axis 3.80223e-014 90 90   XYZ
    dof rx
    limits (0.0 90.0)
  end
  begin
     id 23
     name lthumb
     direction 0.707107 -6.34864e-011 0.707107   
     length 0.65915   
     axis -90 45 -3.84942e-014   XYZ
    dof rx rz
    limits (-45.0 45.0)
           (-45.0 45.0)
  end
  begin
     id 24 
     name rclavicle
     direction -0.911913 0.396426 -0.106115   
     length 3.46301  
     axis 0 0 0   XYZ 
    dof ry rz
    limits (-10.0 20.0)
           (-20.0 0.0)
  end
  begin
     id 25 
     name rhumerus
     direction -1 -4.48965e-011 7.78516e-028  
     length 5.34339   
     axis 180 30 90   XYZ
    dof rx ry rz
    limits (-90.0 60.0)
           (-90.0 90.0)
           (-90.0 90.0)
  end
  begin
     id 26 
     name rradius
     direction -1 -4.48948e-011 -5.79823e-027   
     length 3.65101   
     axis 180 30 90   XYZ
    dof rx
    limits (-10.0 170.0)
  end
  begin
     id 27 
     name rwrist
     direction -1 -4.48995e-011 -1.48996e-026   
     length 1.8255   
     axis 9.0955e-015 -90 -90   XYZ
    dof ry
    limits (-180.0 0.0)
  end
  begin
     id 28
     name rhand
     direction -1 -4.48957e-011 -2.97937e-026   
     length 0.694249   
     axis 1.90115e-014 -90 -90   XYZ
    dof rx rz
    limits (-90.0 90.0)
           (-45.0 45.0)
  end
  begin
     id 29
     name rfingers
     direction -1 -4.4898e-011 -5.95943e-026   
     length 0.559721   
     axis 3.80223e-014 -90 -90   XYZ
    dof rx
    limits (0.0 90.0)
  end
  begin
     id 30
     name rthumb
     direction -0.707107 -6.34969e-011 0.707107   
     length 0.803651   
     axis -90 -45 3.84942e-014   XYZ
    dof rx rz
    limits (-45.0 45.0)
           (-45.0 45.0)
  end
:hierarchy
  begin
    root lhipjoint rhipjoint lowerback
    lhipjoint lfemur
    lfemur ltibia
    ltibia lfoot
    lfoot ltoes
    rhipjoint rfemur
    rfemur rtibia
    rtibia rfoot
    rfoot rtoes
    lowerback upperback
    upperback thorax
    thorax lowerneck lclavicle rclavicle
    lowerneck upperneck
    upperneck head
    lclavicle lhumerus
    lhumerus lradius
    lradius lwrist
    lwrist lhand lthumb
    lhand lfingers
    rclavicle rhumerus
    rhumerus rradius
    rradius rwrist
    rwrist rhand rthumb
    rhand rfingers
  end

#!OML:ASF H:\Terrain\Walking\May29\JustinRory\rory.ASF
:FULLY-SPECIFIED
:DEGREES
283
root 16.8529 17.7433 -6.9442 -4.90784 -34.9977 4.82781
lowerback -0.101127 1.64434 -0.347754
upperback 1.6753 2.20721 -0.91711
thorax 1.79559 1.10356 -0.707616
lowerneck 3.14054 -3.37015 -0.399512
upperneck 9.10013 -4.92609 4.73261
head 2.49026 -2.38352 1.51679
rclavicle 4.88078e-014 3.57812e-015
rhumerus 83.2545 57.3244 -17.2487
rradius 97.3494
rwrist 6.47459
rhand -16.8673 48.1244
rfingers 7.12502
rthumb 9.36336 18.3524
lclavicle 4.88078e-014 3.57812e-015
lhumerus 2.22115 -72.9546 99.8483
lradius 68.194
lwrist -19.8728
lhand -37.3337 0.750494
lfingers 7.12502
lthumb -10.3966 30.4735
rfemur 7.1768 0.297783 15.3752
rtibia 36.0983
rfoot -8.36121 -26.9933
rtoes -9.13626
lfemur -26.8328 -1.12084 -15.5703
ltibia 26.8735
lfoot 3.33079 1.99973
ltoes -2.89644
284
root 16.8586 17.7187 -7.08331 -4.66792 -34.7542 4.18165
lowerback -0.0528631 1.9186 0.186585
upperback 1.44342 2.56322 -0.63334
thorax 1.54478 1.28698 -0.716249
lowerneck 3.95786 -4.2399 -2.02884
upperneck 9.1749 -6.15883 5.26985
head 2.49513 -3.04964 1.97491
rclavicle -9.73517e-014 2.78299e-015
rhumerus 82.1376 57.4515 -15.7132
rradius 100.263
rwrist 7.21314
rhand -21.3785 45.7167
rfingers 7.12502
rthumb 5.00885 15.7959
lclavicle -9.73517e-014 2.78299e-015
lhumerus -0.247656 -73.8615 102.107
lradius 68.2428
lwrist -20.6996
lhand -39.1878 -0.547843
lfingers 7.12502
lthumb -12.1848 29.0773
rfemur 7.75805 0.985157 16.2944
rtibia 35.1509
rfoot -11.7549 -26.8503
rtoes -8.11987
lfemur -27.0126 -1.99013 -14.5047
ltibia 26.686
lfoot 3.31863 2.90745
ltoes -0.408884
285
root 16.8654 17.6899 -7.21652 -4.76058 -34.5034 3.88026
lowerback -0.0646175 2.1177 0.457951
upperback 1.4432 2.8261 -0.59182
thorax 1.56616 1.42176 -0.8206
lowerneck 4.58279 -4.97496 -2.9292
upperneck 9.0927 -7.19576 5.64308
head 2.46254 -3.59861 2.25788
rclavicle -5.03799e-014 7.95139e-016
rhumerus 80.5341 57.1529 -14.9987
rradius 102.75
rwrist 7.72315
rhand -25.3242 44.7278
rfingers 7.12502
rthumb 1.19849 14.7514
lclavicle -5.03799e-014 7.95139e-016
lhumerus -1.01518 -73.7855 101.79
lradius 68.1677
lwrist -21.2495
lhand -40.1343 -2.66233
lfingers 7.12502
lthumb -13.0972 26.9064
rfemur 8.45224 1.19023 16.7666
rtibia 34.2467
rfoot -13.8146 -26.4198
rtoes -5.83652
lfemur -27.1135 -2.07083 -13.9998
ltibia 26.6145
lfoot 3.49798 2.88636
ltoes -0.0850219
286
root 16.8745 17.6602 -7.3484 -5.04286 -34.3123 3.97506
lowerback -0.00503862 2.062 -0.130232
upperback 1.34827 2.75298 -0.30988
thorax 1.3922 1.37571 -0.210555
lowerneck 5.27684 -5.4457 -3.6457
upperneck 9.08501 -7.84028 5.32726
head 2.3896 -3.96014 2.28953
rclavicle 8.7633e-014 0
rhumerus 79.4734 57.3382 -13.8874
rradius 104.722
rwrist 8.28608
rhand -28.4072 44.7019
rfingers 7.12502
rthumb -1.77924 14.7295
lclavicle 8.7633e-014 0
lhumerus -2.3137 -71.642 102.043
lradius 67.5222
lwrist -21.7538
lhand -40.5842 -5.29274
lfingers 7.12502
lthumb -13.5309 24.2476
rfemur 9.06593 1.39095 16.9288
rtibia 33.2717
rfoot -14.6732 -26.4103
rtoes -8.08548
lfemur -27.3038 -1.62045 -14.0003
ltibia 26.6079
lfoot 3.76044 2.34817
ltoes -3.28393
287
root 16.8895 17.6205 -7.48537 -4.94874 -34.0654 3.50101
lowerback -0.114295 1.83868 -0.440621
upperback 1.26674 2.45128 0.280228
thorax 1.32998 1.21796 0.563951
lowerneck 5.80863 -5.74775 -4.4042
upperneck 9.30572 -8.24987 4.61221
head 2.39222 -4.20879 2.19403
rclavicle -1.92883e-014 2.38542e-015
rhumerus 77.9492 57.6684 -13.0117
rradius 106.384
rwrist 8.96224
rhand -31.2408 45.4897
rfingers 7.12502
rthumb -4.51562 15.5578
lclavicle -1.92883e-014 2.38542e-015
lhumerus -3.6964 -68.0147 102.511
lradius 66.4529
lwrist -22.6686
lhand -40.0376 -6.05142
lfingers 7.12502
lthumb -13.004 23.5233
rfemur 9.56167 1.60351 17.7286
rtibia 32.241
rfoot -14.9732 -26.8345
rtoes -11.0602
lfemur -27.5834 -0.986132 -13.5616
ltibia 26.5618
lfoot 4.04023 1.61297
ltoes -8.32775
288
root 16.9038 17.6066 -7.61252 -5.106 -33.688 3.13508
lowerback -0.637601 1.74883 -0.287611
upperback 1.70197 2.32817 0.40452
thorax 2.07266 1.15353 0.631504
lowerneck 5.69466 -6.18494 -4.4384
upperneck 9.51726 -8.79905 4.03469
head 2.48134 -4.49087 1.99474
rclavicle 3.67348e-014 5.56597e-015
rhumerus 74.1491 57.0669 -14.372
rradius 107.619
rwrist 9.64975
rhand -33.5849 48.4315
rfingers 7.12502
rthumb -6.77891 18.56
lclavicle 3.67348e-014 5.56597e-015
lhumerus -3.0879 -64.9309 100.58
lradius 65.3105
lwrist -22.9759
lhand -38.1866 -4.54118
lfingers 7.12502
lthumb -11.2192 25.1388
rfemur 10.3596 1.28397 18.2609
rtibia 31.0919
rfoot -15.6163 -26.9121
rtoes -12.0354
lfemur -27.5074 -0.954209 -13.2002
ltibia 26.3819
lfoot 3.71757 1.37292
ltoes -11.7865
289
root 16.9123 17.5987 -7.73098 -5.77991 -33.373 3.43316
lowerback -1.05199 1.66037 -0.469054
upperback 2.17998 2.21892 0.203151
thorax 2.79996 1.09303 0.547491
lowerneck 5.5581 -6.50929 -4.32939
upperneck 9.79455 -9.20138 3.5803
head 2.58563 -4.69413 1.81178
rclavicle -1.5207e-014 1.19271e-015
rhumerus 69.8262 56.3883 -16.5327
rradius 108.283
rwrist 10.2807
rhand -35.111 51.6873
rfingers 7.12502
rthumb -8.25185 21.8684
lclavicle -1.5207e-014 1.19271e-015
lhumerus -2.81965 -61.6091 98.7685
lradius 63.9135
lwrist -22.1068
lhand -36.0935 -2.88128
lfingers 7.12502
lthumb -9.19999 26.898
rfemur 11.4101 0.68418 17.991
rtibia 29.9122
rfoot -17.5402 -26.2523
rtoes -10.521
lfemur -27.151 -1.68701 -13.2356
ltibia 26.1469
lfoot 2.65688 2.19568
ltoes -10.1448
